<svg width="15" height="15" viewBox="0 0 15 15" fill="none" xmlns="http://www.w3.org/2000/svg">
<path d="M13.6363 0H1.36372C0.61203 0 0 0.61171 0 1.36372V13.6363C0 14.3883 0.61203 15 1.36372 15H13.6363C14.388 15 15 14.3883 15 13.6363V1.36372C15 0.61171 14.388 0 13.6363 0ZM14.318 13.6363C14.318 14.0121 14.0124 14.318 13.6363 14.318H1.36372C0.987557 14.318 0.682022 14.0121 0.682022 13.6363V1.36372C0.682022 0.987876 0.987557 0.682022 1.36372 0.682022H13.6363C14.0124 0.682022 14.318 0.987876 14.318 1.36372V13.6363Z" fill="white"/>
<path d="M11.684 4.1976L6.14215 10.0648L3.3217 6.9308C3.1945 6.79082 2.97941 6.77963 2.83975 6.90555C2.70008 7.03148 2.68858 7.2472 2.8145 7.38687L5.88264 10.796C5.94656 10.867 6.037 10.9076 6.13224 10.9088H6.13608C6.23004 10.9088 6.31921 10.8702 6.38377 10.8021L12.179 4.66581C12.3081 4.52902 12.3021 4.3133 12.1656 4.18418C12.0291 4.05474 11.8121 4.06081 11.6837 4.19792L11.684 4.1976Z" fill="#0ED1D1"/>
</svg>
