<?xml version="1.0" encoding="UTF-8" standalone="no"?>
<svg
   width="15"
   height="15"
   viewBox="0 0 15 15"
   fill="none"
   version="1.1"
   id="svg2"
   sodipodi:docname="checkbox_off.svg"
   inkscape:version="1.3 (0e150ed6c4, 2023-07-21)"
   xmlns:inkscape="http://www.inkscape.org/namespaces/inkscape"
   xmlns:sodipodi="http://sodipodi.sourceforge.net/DTD/sodipodi-0.dtd"
   xmlns="http://www.w3.org/2000/svg"
   xmlns:svg="http://www.w3.org/2000/svg">
  <defs
     id="defs2" />
  <sodipodi:namedview
     id="namedview2"
     pagecolor="#ffffff"
     bordercolor="#000000"
     borderopacity="0.25"
     inkscape:showpageshadow="2"
     inkscape:pageopacity="0.0"
     inkscape:pagecheckerboard="0"
     inkscape:deskcolor="#d1d1d1"
     inkscape:zoom="89.001173"
     inkscape:cx="8.381912"
     inkscape:cy="6.9044034"
     inkscape:window-width="1892"
     inkscape:window-height="1012"
     inkscape:window-x="14"
     inkscape:window-y="54"
     inkscape:window-maximized="1"
     inkscape:current-layer="svg2" />
  <path
     d="M13.6363 0H1.36372C0.61203 0 0 0.61171 0 1.36372V13.6363C0 14.3883 0.61203 15 1.36372 15H13.6363C14.388 15 15 14.3883 15 13.6363V1.36372C15 0.61171 14.388 0 13.6363 0ZM14.318 13.6363C14.318 14.0121 14.0124 14.318 13.6363 14.318H1.36372C0.987557 14.318 0.682022 14.0121 0.682022 13.6363V1.36372C0.682022 0.987876 0.987557 0.682022 1.36372 0.682022H13.6363C14.0124 0.682022 14.318 0.987876 14.318 1.36372V13.6363Z"
     fill="white"
     id="path1" />
</svg>
