<svg width="121" height="33" viewBox="0 0 121 33" fill="none" xmlns="http://www.w3.org/2000/svg">
<path d="M37.9961 9.60634C37.9961 16.9264 33.9678 22.8607 28.998 22.8607C24.0283 22.8607 20 16.9264 20 9.60634C20 9.40323 20.003 9.20111 20.01 9H21.727C21.725 9.11206 21.724 9.22413 21.724 9.33719C21.724 14.377 23.7081 18.6724 26.4896 20.3143C25.429 17.904 24.7416 14.0048 24.7416 9.60634C24.7416 9.40222 24.7426 9.20111 24.7457 9H26.6807V9.12207C26.6807 15.6757 27.7353 20.9937 29.038 21.0287C29.0421 21.0297 29.0471 21.0297 29.0511 21.0297C29.0601 21.0297 29.0681 21.0297 29.0771 21.0277C30.3748 20.9597 31.4224 15.6547 31.4224 9.12207V9H33.2504C33.2534 9.20111 33.2544 9.40323 33.2544 9.60634C33.2544 14.0048 32.567 17.904 31.5064 20.3143C34.288 18.6724 36.2721 14.377 36.2721 9.33719C36.2721 9.22413 36.2711 9.11206 36.2691 9H37.987C37.9931 9.20111 37.9971 9.40323 37.9971 9.60634H37.9961Z" fill="#0ED1D1"/>
<path d="M38.9971 14.2049H41.0342V15.7698C41.3104 15.1785 41.7136 14.7322 42.2409 14.431C42.7812 14.1289 43.3975 13.9788 44.0889 13.9788C45.6358 13.9918 46.5843 14.5261 46.9365 15.5817C47.2127 15.0914 47.6279 14.7012 48.1812 14.412C48.7345 14.1229 49.3188 13.9788 49.9352 13.9788C50.8407 13.9788 51.5251 14.1549 51.9903 14.5071C52.4556 14.8463 52.7638 15.3365 52.9148 15.9779C53.0779 16.6062 53.16 17.4547 53.16 18.5233V22.8607H51.1048V18.5043C51.1048 17.4857 50.9978 16.7563 50.7847 16.3171C50.5835 15.8768 50.1873 15.6567 49.597 15.6567C48.8045 15.6567 48.2012 15.9269 47.787 16.4672C47.3848 16.9955 47.1836 17.6929 47.1836 18.5603V22.8597H45.1465V18.2021C45.1465 17.5358 45.1215 17.0395 45.0715 16.7123C45.0214 16.3851 44.8834 16.128 44.6562 15.9389C44.4301 15.7508 44.0649 15.6557 43.5626 15.6557C43.1224 15.6557 42.7081 15.7878 42.3179 16.0519C41.9407 16.3161 41.6325 16.6743 41.3934 17.1265C41.1673 17.5668 41.0542 18.0441 41.0542 18.5593V22.8587H38.9991V14.2049H38.9971ZM60.5081 23.0498C59.8037 23.0498 59.1693 22.8798 58.603 22.5406C58.0497 22.1884 57.6665 21.7861 57.4524 21.3339L57.4144 22.8617H55.4533V9H57.4524V14.337L57.3583 15.8078C57.5724 15.3045 57.9867 14.8773 58.603 14.5251C59.2314 14.1609 59.9107 13.9778 60.6402 13.9778C61.4946 13.9778 62.237 14.1729 62.8654 14.5621C63.5068 14.9393 63.997 15.4736 64.3362 16.165C64.6754 16.8444 64.8455 17.6358 64.8455 18.5413C64.8455 19.4468 64.6444 20.2573 64.2422 20.9367C63.8519 21.616 63.3247 22.1373 62.6583 22.5015C62.0049 22.8657 61.2875 23.0488 60.5081 23.0488V23.0498ZM60.1689 21.3529C60.9864 21.3529 61.6147 21.0948 62.0549 20.5795C62.4952 20.0512 62.7153 19.3728 62.7153 18.5423C62.7153 17.7119 62.4952 17.0215 62.0549 16.5052C61.6277 15.9769 60.9994 15.7127 60.1689 15.7127C59.4525 15.7127 58.8492 15.9639 58.3589 16.4672C57.8686 16.9574 57.6235 17.6048 57.6235 18.4093V18.5413C57.6235 19.0816 57.7365 19.5659 57.9627 19.9931C58.2018 20.4204 58.51 20.7536 58.8872 20.9927C59.2764 21.2318 59.7046 21.3509 60.1699 21.3509L60.1689 21.3529ZM66.5845 14.2059H68.6216V15.9029C68.8227 15.3245 69.1499 14.8593 69.6022 14.5071C70.0544 14.1549 70.5707 13.9788 71.149 13.9788C71.5513 13.9788 71.8284 14.0168 71.9785 14.0918L71.6953 16.147C71.5823 16.0719 71.3371 16.0339 70.9599 16.0339C70.3686 16.0339 69.8283 16.222 69.338 16.5992C68.8607 16.9765 68.6216 17.5798 68.6216 18.4093V22.8597H66.5845V14.2049V14.2059ZM77.1334 23.0508C76.1028 23.0508 75.2413 22.8497 74.5499 22.4475C73.8585 22.0323 73.3493 21.486 73.0221 20.8066C72.6949 20.1152 72.5318 19.3608 72.5318 18.5433C72.5318 17.6258 72.7199 16.8214 73.0971 16.13C73.4873 15.4386 74.0216 14.9103 74.7 14.5461C75.3794 14.1689 76.1458 13.9808 77.0003 13.9808C78.333 13.9808 79.3196 14.352 79.961 15.0934C80.6143 15.8228 80.9415 16.8534 80.9415 18.1861C80.9415 18.5253 80.9225 18.8775 80.8845 19.2417H74.661C74.7991 20.0091 75.0692 20.5615 75.4714 20.9016C75.8867 21.2408 76.458 21.4109 77.1874 21.4109C77.7907 21.4109 78.287 21.3609 78.6772 21.2598C79.0675 21.1598 79.4257 21.0207 79.7518 20.8446L80.3742 22.2964C80.06 22.4975 79.6328 22.6736 79.0915 22.8247C78.5512 22.9758 77.8968 23.0508 77.1304 23.0508H77.1334ZM78.9624 17.8269C78.9754 17.0475 78.8053 16.5002 78.4531 16.186C78.1009 15.8588 77.5986 15.6957 76.9443 15.6957C75.6245 15.6957 74.8641 16.4061 74.662 17.8269H78.9614H78.9624ZM82.8696 9H84.8877V22.8607H82.8696V9ZM87.5392 9H89.5573V22.8607H87.5392V9ZM95.8668 23.0488C95.0874 23.0488 94.364 22.8667 93.6986 22.5015C93.0453 22.1243 92.517 21.596 92.1147 20.9177C91.7245 20.2263 91.5304 19.4218 91.5304 18.5043C91.5304 17.5868 91.7005 16.8074 92.0397 16.128C92.3919 15.4486 92.8882 14.9213 93.5295 14.5441C94.1709 14.1669 94.9253 13.9788 95.7928 13.9788C96.2961 13.9788 96.7673 14.0668 97.2076 14.2429C97.6478 14.419 98.018 14.6391 98.3202 14.9033C98.6224 15.1544 98.8235 15.4066 98.9235 15.6577L98.9616 14.2059H100.904V22.8617H98.9806L98.9426 21.3339C98.7284 21.7861 98.3392 22.1884 97.7729 22.5406C97.2076 22.8798 96.5722 23.0498 95.8678 23.0498L95.8668 23.0488ZM96.206 21.3519C96.9224 21.3519 97.5258 21.1068 98.016 20.6165C98.5063 20.1132 98.7514 19.4598 98.7514 18.6554V18.5233C98.7514 17.983 98.6384 17.4987 98.4123 17.0715C98.1861 16.6443 97.878 16.3111 97.4877 16.0719C97.0975 15.8328 96.6703 15.7137 96.205 15.7137C95.4006 15.7137 94.7782 15.9779 94.338 16.5062C93.8977 17.0215 93.6776 17.6939 93.6776 18.5243C93.6776 19.3548 93.8917 20.0522 94.319 20.5795C94.7592 21.0948 95.3876 21.3529 96.205 21.3529L96.206 21.3519Z" fill="#0ED1D1"/>
</svg>
