<svg width="18" height="14" viewBox="0 0 18 14" fill="none" xmlns="http://www.w3.org/2000/svg">
<path d="M17.9961 0.606339C17.9961 7.92643 13.9678 13.8607 8.99803 13.8607C4.02825 13.8607 0 7.92643 0 0.606339C0 0.403225 0.00300168 0.201112 0.0100056 0H1.72696C1.72496 0.112063 1.72396 0.224125 1.72396 0.337188C1.72396 5.377 3.70807 9.6724 6.48963 11.3143C5.42903 8.90397 4.74165 5.0048 4.74165 0.606339C4.74165 0.402225 4.74265 0.201112 4.74565 0H6.68073V0.122068C6.68073 6.67573 7.73532 11.9937 9.03805 12.0287C9.04205 12.0297 9.04705 12.0297 9.05106 12.0297C9.06006 12.0297 9.06807 12.0297 9.07707 12.0277C10.3748 11.9597 11.4224 6.65472 11.4224 0.122068V0H13.2504C13.2534 0.201112 13.2544 0.403225 13.2544 0.606339C13.2544 5.0048 12.567 8.90397 11.5064 11.3143C14.288 9.6724 16.2721 5.377 16.2721 0.337188C16.2721 0.224125 16.2711 0.112063 16.2691 0H17.987C17.9931 0.201112 17.9971 0.403225 17.9971 0.606339H17.9961Z" fill="#0ED1D1"/>
</svg>
